<svg xmlns="http://www.w3.org/2000/svg" viewBox="0 0 400 300" width="400" height="300">
  <rect width="400" height="300" fill="#bfe9ff"/>
  <circle cx="330" cy="60" r="34" fill="#ffd23f"/>
  <!-- farm gate sign -->
  <rect x="150" y="40" width="120" height="40" rx="8" fill="#fff8e7" stroke="#2b2b3a" stroke-width="4"/>
  <text x="210" y="66" font-family="Fredoka, sans-serif" font-size="16" font-weight="700" fill="#3fae4a" text-anchor="middle">BOREAL FARM</text>
  <line x1="160" y1="80" x2="160" y2="180" stroke="#8b5a2b" stroke-width="8"/>
  <line x1="260" y1="80" x2="260" y2="180" stroke="#8b5a2b" stroke-width="8"/>
  <!-- ground -->
  <rect y="180" width="400" height="120" fill="#5fd068"/>
  <rect y="180" width="400" height="14" fill="#3fae4a"/>
  <!-- school bus -->
  <rect x="40" y="150" width="170" height="70" rx="12" fill="#ffd23f" stroke="#2b2b3a" stroke-width="4"/>
  <rect x="56" y="164" width="30" height="26" rx="4" fill="#bfe9ff" stroke="#2b2b3a" stroke-width="3"/>
  <rect x="94" y="164" width="30" height="26" rx="4" fill="#bfe9ff" stroke="#2b2b3a" stroke-width="3"/>
  <rect x="132" y="164" width="30" height="26" rx="4" fill="#bfe9ff" stroke="#2b2b3a" stroke-width="3"/>
  <circle cx="80" cy="224" r="16" fill="#2b2b3a"/>
  <circle cx="80" cy="224" r="6" fill="#fff8e7"/>
  <circle cx="175" cy="224" r="16" fill="#2b2b3a"/>
  <circle cx="175" cy="224" r="6" fill="#fff8e7"/>
</svg>
