<svg xmlns="http://www.w3.org/2000/svg" viewBox="0 0 200 220" width="200" height="220">
  <!-- antenna with leaf -->
  <line x1="100" y1="40" x2="100" y2="18" stroke="#2b2b3a" stroke-width="5" stroke-linecap="round"/>
  <ellipse cx="100" cy="12" rx="14" ry="9" fill="#5fd068" stroke="#2b2b3a" stroke-width="4"/>
  <!-- head -->
  <rect x="48" y="38" width="104" height="78" rx="22" fill="#5ec5ff" stroke="#2b2b3a" stroke-width="5"/>
  <!-- face screen -->
  <rect x="62" y="52" width="76" height="50" rx="14" fill="#2b2b3a"/>
  <circle cx="84" cy="74" r="8" fill="#ffd23f"/>
  <circle cx="116" cy="74" r="8" fill="#ffd23f"/>
  <path d="M82 90 Q100 102 118 90" stroke="#fff8e7" stroke-width="4" fill="none" stroke-linecap="round"/>
  <!-- ears -->
  <circle cx="44" cy="78" r="9" fill="#ffd23f" stroke="#2b2b3a" stroke-width="4"/>
  <circle cx="156" cy="78" r="9" fill="#ffd23f" stroke="#2b2b3a" stroke-width="4"/>
  <!-- body -->
  <rect x="58" y="120" width="84" height="74" rx="20" fill="#3fae4a" stroke="#2b2b3a" stroke-width="5"/>
  <rect x="74" y="138" width="52" height="30" rx="8" fill="#fff8e7" stroke="#2b2b3a" stroke-width="4"/>
  <circle cx="88" cy="153" r="5" fill="#5ec5ff"/>
  <circle cx="112" cy="153" r="5" fill="#ffd23f"/>
  <!-- arms -->
  <line x1="58" y1="140" x2="34" y2="124" stroke="#2b2b3a" stroke-width="6" stroke-linecap="round"/>
  <circle cx="30" cy="120" r="8" fill="#5ec5ff" stroke="#2b2b3a" stroke-width="4"/>
  <line x1="142" y1="140" x2="166" y2="158" stroke="#2b2b3a" stroke-width="6" stroke-linecap="round"/>
  <circle cx="170" cy="162" r="8" fill="#5ec5ff" stroke="#2b2b3a" stroke-width="4"/>
</svg>
